<?xml version="1.0" encoding="utf-8"?>
<!-- Generator: Adobe Illustrator 18.1.1, SVG Export Plug-In . SVG Version: 6.00 Build 0)  -->
<svg version="1.1" id="base" xmlns="http://www.w3.org/2000/svg" xmlns:xlink="http://www.w3.org/1999/xlink" x="0px" y="0px"
	 viewBox="0 0 212.6 306.1" enable-background="new 0 0 212.6 306.1" xml:space="preserve">
<g id="color">
	<path fill="#7D1A34" d="M73,96.9c-3.7,4.5-7.2,9.3-10.5,14.2c-2.1,3.2-4.2,6.6-6.2,9.9c-3.7,6.3-7.5,12.9-12.9,17.8
		c-1,0.9-2,1.8-2.5,3c-0.5,1.5-0.2,3,0.2,4.5c0.4,1.7,0.6,3.4,1.7,4.7c0-0.9,0.6-6.1,2-8c0.6-1.1,1.5-2.2,2.3-3.3
		c2.8-3.5,5.6-7.1,8.4-10.6c2.4-3,4.7-6,6.5-9.4c1.5-2.9,2.5-6,4.1-8.8c0.8-1.4,1.8-2.7,2.7-4c3.5-4.7,7-9.4,10.5-14.1
		c-1.1,0.8-2.6,1.2-3.7,1.9C74.4,95.2,73.7,96.1,73,96.9z"/>
	<path fill="#400F20" d="M73.6,94c-2.2,0.6-4.4,1.2-6.6,1.8c-1.8,0.5-3.7,1-5.6,1.1c-1.5,3.8-2.4,7.9-2.4,11.9
		c0,1.8,0.2,3.9,1.6,5.1c2.1-6,7.1-10.5,11.2-15.5C73,97.2,74.1,95.6,73.6,94z"/>
	<path fill="#4F0E28" d="M51.2,114c-0.2,1.3-1.1,2.4-1.8,3.4c-2.3,3.4-3.4,7.5-3.4,11.6c0,1.8,0.3,3.7,1.5,5.1c1-1.5,2-2.9,3.1-4.4
		c0.8-0.6,1.4-1.5,1.9-2.2c0.9-1.3,1.8-2.6,2.7-3.9c1-1.5,2-2.9,2.3-4.6c-2-0.5-3.7-1.5-5.1-3C52.3,115.2,51.8,114.4,51.2,114z"/>
	<path fill="#4F0E28" d="M80.8,92.6c-3.8,3.5-7.2,7.5-10.2,11.8c-2.4,3.5-4.5,7.2-6.6,10.9c-1.2,2.2-2.5,4.4-3.8,6.6
		c-3.3,5.5-7,10.9-11,15.9c1.8,1,4.1,0.8,5.9,0c1.8-0.8,3.4-2.3,4.7-3.9c2.1-2.4,3.8-5.2,5.1-8.2c0.6-1.3,1.1-2.7,1.6-4.1
		c4.5-11.2,11.8-21.3,21.8-28.1c1.8-1.2,3.7-2.4,4.7-4.4c-1.8-1.4-4.4-1.4-6.6-0.5C84.2,89.5,82.4,91,80.8,92.6z"/>
	<path fill="#D8D0C0" d="M32.3,111.8L32.3,111.8c0.9,1.1,1.9,2.1,2.8,3.2c0-0.9-0.1-1.8-0.1-2.8c0-0.2,0-0.3,0-0.5s-0.1-0.5-0.1-0.6
		c-0.7-4.1-0.9-8.3-0.7-12.5c0-0.2,0-0.4-0.1-0.5s-0.2-0.2-0.3-0.2c-1.2-0.2-2.4-0.4-3.6-0.6c-0.1,2.5-0.1,5.1-0.2,7.7
		C30.4,107.5,31.2,109.8,32.3,111.8z"/>
	<path fill="#E8E2D1" d="M60.9,95.8c-3.3-0.1-6.7-0.8-9.7-1.9c-0.3,3.9-1.4,7.8-0.8,11.6c0.3,2.4,1.2,4.6,2.1,6.8
		c0.6,1.6,1.3,3.3,2.4,4.7c1.1,1.4,2.8,2.4,4.6,2.2c-0.8-4.5-0.7-9-0.5-13.6c0-0.8,0-1.5,0.2-2.3s0.7-1.7,1-2.4
		C60.6,99.2,60.9,97.5,60.9,95.8z"/>
	<path fill="#E5D3AE" d="M173.2,132.9c6-9.8,12-19.7,16-30.4c4-10.8,6-22.6,3.7-33.8c-2.4-11.2-9.5-21.8-20-26.5
		c-7.3-3.3-16.1-3.5-23.6-0.6c-1.9,0.8-3.7,1.7-5.7,2.1c-1.8,0.5-3.7,0.5-5.5,0.7c-4.6,0.2-9.2,0.5-13.7,0.5
		c-6.4,0.2-13.1,0.3-19,2.7c-2.3,0.9-4.4,2.1-6.7,3.1c-4.1,1.9-8.3,3.2-12.5,4.5c-7.8,2.4-15.9,4.2-23.7,6.5c0.2,2,0.3,4,0.5,6
		c0.1,0.6,0.2,1.3,0.5,1.8c0.7,1.1,2.2,1.1,3.5,1c12.3-0.9,24.5-4.4,36.8-3.4c0.2,3.1-1.1,6.1-3.6,8c-2.4,1.8-5.8,2.2-8.6,1.1
		c-1.5-0.6-2.8-1.6-4.1-2.4c-7-4.1-15.8-2.8-23.9-1.4c0.9,4.6-2.4,9.2-6.5,11.3c-4.1,2.1-9,2.4-13.6,2.5c-0.6,0-1.2,0-1.7-0.3
		c-0.6-0.5-0.8-1.3-0.9-2c-0.3-1.8-0.6-3.7-0.9-5.5c-3.9,1.1-7.7,3.1-10,6.5s-2.7,8.2-0.2,11.3c0.8,1,2.1,1.9,3.4,1.7
		c1.2-0.2,2.1-1.2,2.9-2c2.6-2.4,6.3-3.7,9.9-3.3c3.4,0.3,6.5,2,9.8,2.8c13.2,3.1,26.1-8.3,39.7-7.3c-0.9,0.8-1.9,1.4-2.9,2.1
		c-15.2,9.6-26,26-28.8,43.8c6-9.1,14.7-16.4,24.7-20.7c7.8-3.3,16.3-4.7,24-8.2c2.5-1.1,5-2.4,7-4.3c4.2-3.8,6.1-9.5,8-14.8
		c0.2-0.5-0.4-1.5-0.6-1c9.8,9.6,16.5,22.2,19.2,35.6c1.1,5.5,3.1,10.6,3.1,16.2c-0.1,3.7-0.6,7.4-1.1,11.2c-0.2,1.3-0.4,2.6-0.6,4
		c-1.3,7.2-3.9,14.2-7.6,20.5c3-0.2,5.5-2.8,8.5-3c1-0.1,2.1,0.1,3-0.5c0.5-0.3,0.8-0.7,1.1-1.1c3-4.2,5.7-8.6,8.4-12.9
		c1.4-2.1,2.8-4.4,4.1-6.5c2.3-3.7,4.7-7.4,7-11.2C172.6,135.9,173.3,134.7,173.2,132.9z"/>
	<path fill="#C4A574" d="M149.9,171.8c-12.2,17.3-27.4,32.2-43.6,45.8c-6,5-12.1,9.8-17.1,15.8s-8.8,13.2-9.2,20.9
		c-0.2,4.6,0.8,9.2,2.1,13.6c0.3,1.1,0.7,2.1,1.5,2.9c0.5,0.5,1.2,0.9,1.8,1.5c1.1,1.1,1.4,2.8,2,4.1c0.9,2.1,2.8,3.5,4.5,4.9
		c8.6,6.5,18.5,11.1,28.9,13.4c-9.6,1.2-19.7,2.1-28.8-1.3c-2.6-1-5.1-2.4-7.8-3.2c-1.3-0.4-2.6-0.7-3.7-1.3c-1.1-0.6-2-1.5-2.9-2.4
		c-6.2-6.3-10.8-14.4-12.3-23.1c-0.7-3.7-0.8-7.5-0.3-11.2c1.6-12.8,9.6-24,19.3-32.5c13.2-11.6,29.8-19.3,41.3-32.4
		c5-5.7,9.4-12.5,16.5-14.8C144.6,171.5,147.3,171.2,149.9,171.8z"/>
	<path fill="#A78B65" d="M51.2,72.4c0.3,0.2,0.5,0.5,0.9,0.5c0.3,0.1,0.7,0,1-0.2c2.2-0.6,4.5-1.3,6.7-1.9c1.2-0.3,2.5-0.7,3.7-0.2
		c0.2-2.7-0.3-5.4-1.4-7.9c-5.4,1.8-11.1,3.1-16.8,3.9c0.8,0.1,1.4,0.8,1.8,1.5C48.3,69.8,49.7,71.2,51.2,72.4z"/>
	<path fill="#A78B65" d="M121.2,116.6c-1.8-3.2-4.1-6.3-7.6-7.8c-3-1.2-6.3-1.1-9.5-0.6s-6.3,1.4-9.5,2.3c-8,2.3-17,5.2-21,12.5
		c10.6,1.1,21.1,4.5,30.4,9.9c2.4,1.4,4.6,2.8,6.7,4.6c6,5,10.2,11.9,11.9,19.5C126.3,143.8,127.7,128.8,121.2,116.6z"/>
	<path fill="#78693F" d="M14.1,62.2c-1.5,1.9-2.1,4.4-2.2,6.9c-0.2,6,1.8,11.9,5,16.9c3.1,5,7.3,9.4,11.6,13.6c-0.8-1,0.6-2.3,1-3.5
		s-0.5-2.5-0.9-3.7c-1.1-3.1,0.1-6.7,2.3-9.3c2.2-2.4,5.3-4.1,8.3-5.4c4-1.8,8.1-3.1,12.3-4.3c-1.9-2.2-3.8-4.4-5.7-6.7
		c-0.5-0.5-0.9-1.1-1.5-1.4c-0.8-0.4-1.7-0.3-2.6-0.2c-5.1,0.2-10.4-1.6-14.3-5c-1.2-1-2.4-2.2-3.9-2.4c-1.1-0.2-2.4,0.2-3.4,0.6
		C17.8,59.3,15.6,60.4,14.1,62.2z"/>
	<path fill="#78693F" d="M35.9,98.9c0,3.2,0,6.4-0.1,9.6c2.7-0.7,5.3,1,7.6,2.6c2.4,1.7,5.2,3.4,8.1,2.7c-0.2-6.2-0.8-12.4-1.6-18.5
		c0-0.1,0-0.2-0.1-0.3c-0.1-0.2-0.3-0.2-0.5-0.2c-2.1-0.3-4.3-0.6-6.4-0.5c-2.1,0.2-4.3,0.7-6,2.1c-0.3,0.2-0.5,0.5-0.8,0.8
		C35.9,97.7,35.9,98.3,35.9,98.9z"/>
	<path fill="#CCBA9B" d="M108.2,104.7c-0.6,1.6-2.1,2.8-3.7,3.4s-3.4,0.8-5,1.1c-3.7,0.7-7.2,2-10.7,3.4c-3,1.1-6,2.3-8.6,4.1
		c-6.7,4.5-10.6,12.7-17.9,15.8c-0.2-1.1,0.3-2.2,0.8-3.3c3.4-7.6,6.9-15.2,11.6-22c4.7-6.9,10.8-12.9,18.4-16.4
		c1.7-0.8,3.5-1.5,5.4-1.5c2.9,0,5.7,1.7,7.5,4.1s2.6,5.3,2.8,8.3C108.6,102.6,108.6,103.7,108.2,104.7z"/>
	<path fill="#43481A" d="M81.1,69.6c-0.2,0.3-0.5,0.7-0.5,1.1c0.1,0.6,0.6,1,1.1,1.3c4.2,2.7,9.1,4.4,14.1,4.8
		c1.1,0.1,2.1,0.2,3.1-0.2c1.7-0.5,3-1.9,3.7-3.5c0.8-1.6,1.1-3.4,1.3-5c-5.7-0.1-11.5-0.2-17.3-0.2C84.7,67.9,82.4,68,81.1,69.6z"
		/>
	<path fill="#8C734D" d="M63,72.4c-0.1-0.3-0.2-0.6-0.5-0.8c-0.2-0.2-0.6-0.2-0.8-0.2c-4.7,0.1-9.2,1.7-13.5,3.4
		c-2,0.8-4,1.6-5.6,2.9s-2.8,3.4-2.6,5.5c0.1,0.8,0.5,1.8,1.2,2.1c0.3,0.2,0.7,0.2,1.1,0.3c4.1,0.5,8.3,0.4,12-1.1
		c3.8-1.5,7.2-4.4,8.5-8.2C63.2,75.2,63.5,73.7,63,72.4z"/>
	<path fill="#49401B" d="M139.5,105.4c0,0.5-0.2,0.9-0.4,1.3c-3.3,6.6-10.4,11-17.7,11.1c-3.7-4.1-8-7.8-12.5-11
		c4.9-0.6,9.5-3.4,12.3-7.3c1.5-2,2.4-4.3,3.4-6.5c0.9-2.1,1.8-4.2,2.8-6.3c5,5,9,10.9,11.7,17.4C139.4,104.4,139.5,105,139.5,105.4
		z"/>
	<path fill="#5A4F22" d="M134.8,111.2c-3.2,2.4-6.6,5-10.6,5.8c-0.8,0.2-1.7,0.4-1.9,1.1c-0.2,0.5,0.1,1,0.3,1.5
		c2.8,6,3.9,12.6,3.2,19.2c4-0.2,8,0.4,12,0.2s8.2-1.2,11.1-4c-0.2-10.5-3.4-20.8-9.2-29.5C139.1,108,136.8,109.7,134.8,111.2z"/>
	<path fill="#685D28" d="M122.8,155.8c1.3-0.5,2.6,0.6,3.7,1.5c2.9,2.1,6.7,2.7,10.3,3.1c2.4,0.3,5.3,0.6,7.3-0.9
		c2.1-1.5,2.7-4.4,3.1-7c0.8-5.6,1.3-11.2,1.5-16.8c-1.5,0.6-3.1,1.1-4.7,1.5c-3.1,0.9-6.4,1.5-9.7,1.8c-2.1,0.2-4.2,0.3-6.3,0.3
		c-0.3,0-0.7,0-0.9,0.2c-0.6,0.4-0.6,1.2-0.6,1.9C126.4,146.4,123,150.8,122.8,155.8z"/>
	<path fill="#5A4F22" d="M114.6,178.6c3.7,0.2,7.5,0.2,11.2-0.6c1.8-0.5,3.5-1.1,5.3-1.8c1.4-0.5,2.8-1.1,4.1-1.5
		c0.6-0.2,1.1-0.5,1.7-0.8c0.5-0.4,1-0.9,1.5-1.5c2.7-3.4,4.4-7.5,5.1-11.8c-7,0.5-14.3-0.5-20.8-3.3c-4,6.5-8.9,12.5-14.4,17.8
		c1.3,0.2,1.9,1.8,3,2.6C112.1,178.4,113.3,178.5,114.6,178.6z"/>
	<path fill="#685D28" d="M89.2,188.8c-0.3,0.5-0.3,1.2-0.2,1.9c0.8,5.1,5.4,9,10.1,11.2c1.8,0.8,3.7,1.5,5.8,1.4
		c4.3-0.4,7.1-4.4,10.6-6.9c1.1-0.8,2.1-1.4,3.2-2.1c7.1-4.4,13-10.9,16.6-18.5c-2.8,0.6-5.7,1.2-8.4,1.8
		c-5.5,1.1-11.2,2.4-16.6,0.7c-1.5-0.5-3.1-1.2-4.7-0.8c-0.7,0.2-1.3,0.6-1.8,1c-4.5,3.1-9,6.2-13.5,9.3
		C89.9,188.1,89.4,188.4,89.2,188.8z"/>
	<path fill="#7B6D33" d="M89.3,192.2c-0.3-0.5-0.5-0.9-0.9-1.2c-0.5-0.5-1.2-0.5-1.9-0.6c-2.5-0.1-5,1.1-7.2,2.1
		c-6.3,3.1-12.5,6-18.8,9.1c-2.3,1.1-4.6,2.2-6.3,4.1c3,4.4,7.6,7.9,12.7,9.4c1.5,0.5,2.9,0.7,4.3,1.1c4.2,1.3,8.3,4.1,12.7,3.3
		c2.4-0.5,4.5-2.1,6.5-3.6c4.4-3.4,9-7,13.4-10.4c0.5-0.5,1.2-1.2,0.8-1.8C98.1,202.1,92.5,197.8,89.3,192.2z"/>
	<path fill="#8C7D3F" d="M83.5,219.7c-2.8-0.6-5.5-1.1-8.3-1.8c-2.8-0.6-5.7-1.2-8.3-2.3c-3.7-1.5-7-3.9-10.1-6.6
		c-1.1-0.9-2.2-1.9-3.6-2.1c-2-0.2-3.7,1.4-5,2.8c-7.1,8-13.5,17.4-13.8,28.1c7.4,3.7,15.8,5.6,24.1,5.3c2.2-0.1,4.5-0.3,6.5-1.3
		c5.3-2.6,7-9.3,11.2-13.5C78.8,225.5,82.8,223.5,83.5,219.7z"/>
	<path fill="#7B6D33" d="M61.9,273.4c1.1-0.7,2.2-1.5,2.9-2.6c0.8-1.4,0.9-3,1-4.6c0.2-4.5,0.5-9,0-13.5c-0.2-1.5-0.4-2.9-0.2-4.3
		c0.5-2.1,2.1-4,2.1-6.1c-8.9,2-18.3,1.3-26.8-1.9c-2.1-0.8-4.1-1.8-6.3-1.8c-1.8,5.1-1.8,10.7-0.8,16c1,5.3,3.1,10.4,5.4,15.2
		c0.8,1.6,1.7,3.3,3.1,4.4c1.7,1.4,4,1.8,6.2,2C53.3,276.6,58,275.7,61.9,273.4z"/>
	<path fill="#685D28" d="M66.5,294.2c-2.6-1.9-5.8-2.8-8.5-4.4c-1.4-0.8-2.5-1.9-3.7-3c-2-1.8-4.1-3.6-6-5.4
		c-1.5-1.3-3.1-2.9-3.1-4.9c7.4,0.5,15.1-2,20.7-6.9c2.1,8.3,7.3,15.7,14.5,20.3c-1.3,1.1-2.6,2.3-3.9,3.5c-1.9,1.8-4.4,3.6-6.8,2.8
		C68.4,295.9,67.5,295,66.5,294.2z"/>
	<path fill="#49401B" d="M73,295.7c1,1,2,2.1,3.2,2.7c1,0.5,2.1,0.8,3.2,1.1c11.6,2.7,23.9,3.8,35.5,0.8c0.9-0.2,1.8-0.5,2.5-1.1
		s1.1-1.7,0.8-2.5c-12.5-0.7-25-2.5-37.3-5.4c-0.5-0.1-1-0.3-1.1-0.8C77.5,292.2,75.3,293.9,73,295.7z"/>
	<path fill="#A78B65" d="M16.3,237.3c5.1-1.5,10.6-0.5,15.9,0.2c0.4,0.1,0.8,0.1,1.1-0.2c0.2-0.2,0.2-0.4,0.3-0.6
		c1.5-4.4,2.8-8.6,4.3-13c-1.8,0-3.2-1.8-5-2.2c-1.8-0.5-3.6,0.4-5.2,1.2c-3.1,1.5-6.2,3.1-9,5.1c-0.5,0.4-1,0.8-1.5,1.2
		C15.4,231.3,15.8,234.5,16.3,237.3z"/>
	<path fill="#A78B65" d="M5.9,261.6c0.8,4.8,2.5,9.5,4.1,14.1c0.5,1.5,1.1,3,2,4.4c1.1,1.7,2.7,3.1,4.4,4.2
		c6.2,4.4,13.6,6.6,21.1,7.6s15.1,0.8,22.6,0.7c-0.9-1.1-2.1-2-3.4-2.8c-15.7-11.9-25-32.1-23.4-51.8c-4.5-1.1-9.2-1.8-13.8-1
		s-9,3.1-11.6,7c-2.1,3.3-2.7,7.4-2.6,11.3C5.4,257.4,5.6,259.5,5.9,261.6z"/>
	<path fill="#A78B65" d="M107.8,290c3.7,1.5,7.6,3.1,11.6,3.6c2.4,0.3,4.9,0.2,7.4,0.4c8.7,0.5,17.2,3.1,25.9,4.7
		c3.9,0.7,7.9,1.2,11.8,1.7c7,0.8,14,1.4,20.8,0.1c6.9-1.3,13.5-4.7,17.6-10.3c4.3-6,5-13.9,4.9-21.3c0-2.1-0.1-4.3-0.6-6.4
		c-1.6-6.1-7.1-10.6-13.1-12.8c-5.8-2.1-12.1-2.4-18.2-2.8c-14.6-0.7-29.4-1.4-43.8,1.3c-4.9,0.9-9.7,2.2-14.6,3
		c-12.2,1.8-24.9,0.1-36.2-5c0.4,6.3-2.2,12.9-0.5,19c0.9,3.1,2.8,5.7,4.7,8.3c2.1,2.9,4.3,5.8,7,8.3
		C96.7,285.4,102.3,287.8,107.8,290z"/>
	<path fill="#E5D3AE" d="M86.9,235.5c-2,3.4-3.4,7-4.3,10.8c7.3,0.8,14.3,3.7,21.6,4.8c6.7,1.1,13.5,0.6,20.1-0.6
		c5.7-1.1,11.4-2.7,17.2-3.4c3.7-0.5,7.5-0.5,11.2-0.5c3.7-0.1,7.4-0.1,11.1-0.2c7.8-0.1,15.7-0.2,23.3,1.5c1.2-5-2.7-10.3-7.4-12.3
		c-4.8-2.1-10.3-1.8-15.5-1.6c-2.4,0.2-4.8,0.2-7,1c-1.8,0.5-3.3,1.5-5,2.1c-5.3,2.1-11.1,1.8-16.7,2.4c-5.2,0.5-10.3,1.9-15.5,2.5
		C108.6,243.4,96.8,241.1,86.9,235.5z"/>
	<path fill="#CCBA9B" d="M72,93.4c1.8-1.3,3.7-2.7,5.9-3.5c1.5-0.5,3-0.8,4.6-1.1c5-0.8,10.3-1.2,15.4-1.2
		c-9.1-2.1-17.1-8.5-21-16.9c-4.9,0.2-9.7,0.8-14.5,1.8c6.3,2.4,11.1,8.6,11.9,15.3C74.3,89.9,73.9,92.5,72,93.4z"/>
	<path fill="#CCBA9B" d="M113.6,63.1c-1.3-1.9-2.8-3.6-5.6-4.7c-6.5-2.4-13.7-3.1-20.5-2.1c3.9-0.6,8-2.1,12-2.8
		c4.4-0.8,8,0.7,12.4,1.2c5.3,0.5,10.3-2.1,14.9-4.8c2.5-1.5,5.4-3.7,8.2-4.7c2.2-0.7,4.4-0.4,6.7-0.7c5.7-0.6,11.2-3.2,16.6-5
		c2.1-0.7,4.2-1.3,6.3-0.9c4.4,0.8,7.3,5.3,11.6,6.3c-7.2-2.2-15.1-2.3-22.3,0.4c-7,2.7-13.1,8.3-15.5,15.5
		c-2.9,8.3-0.8,17.5,1.3,26.2c2.6,10.5,5.2,21,7.8,31.5c-5.5-13.8-14.9-24.9-20.5-38.7c-1.1-2.6-2.1-5.3-4.1-7.2
		c-1.5-1.5-3.6-2.4-5.2-3.8C115.9,67,114.9,65,113.6,63.1z"/>
	<path fill="#A5895B" d="M119.3,45.9c-2.5,0.2-5,0.3-7.5,1c-1.6,0.5-3.1,1.1-4.6,1.7c-7.3,3-14.5,6-21.7,9c9-1.9,18.3-2.7,27.5-2.2
		c3.6,0.2,7.3,0.5,10.6-0.6c1.8-0.6,3.4-1.5,5-2.4c4.4-2.6,9-5.2,13.4-7.8C134.5,44.9,127,45.5,119.3,45.9z"/>
	<path fill="#C4B191" d="M29.2,86.2c2.9-3.7,7-6.7,11.5-8.3c0.1,1.6-0.5,3.2-0.5,4.8c0,1.6,0.7,3.4,2.3,3.8c1.2,0.3,3.1-0.2,3.4,1.1
		c0.1,0.4,0,0.8,0.2,1.2s0.5,0.7,0.8,0.9c1.4,1.1,2.8,2.1,4.2,3.2c-1.7,1-3.8,0.2-5.7,0.1c-3.5-0.1-6.4,2.5-9.5,4.2
		c-1.8,1-4.3,1.5-5.4-0.2c-0.5-0.8-0.5-2-0.6-3c-0.4-2.1-2.1-4.1-1.5-6.2C28.4,87.2,28.8,86.7,29.2,86.2z"/>
	<path fill="#F2EBD8" d="M54.6,43.7c-0.5-0.4-0.7-1-0.9-1.5c-2.2-7.3-1.1-15.3,0.2-22.9c0.5-3.1,1.1-6.4,3.4-8.6
		c2.1-1.8,5-2.3,7.4-3.5c1.5-0.8,2.8-1.8,4.3-2.3c1.4-0.5,2.8-0.7,4.3-0.8c6.3-0.5,12.7,0,19,0.5C93.8,4.8,95.4,4.8,97,5
		c5,0.4,10.1,0.8,15.1,1.9c1.1,0.2,2.4,0.6,3.3,1.5c0.8,0.8,1.2,1.8,1.6,2.8c1.9,5.3,2.8,10.9,2.6,16.5C106.2,30.8,93,35.2,81.8,43
		c-0.8,0.5-1.5,1.1-2.4,1.5c-2.3,0.8-4.8,0-7.3-0.4c-5.3-0.8-10.8,0.7-16.1,0.2C55.5,44.1,55,44,54.6,43.7z"/>
	<path fill="#F2EBD8" d="M66.1,62.1c3.7-1,7.4-2.3,11.1-3.5c6.4-2.2,25.6-10.5,28-11c4.1-0.8,8.1-1.6,12.2-2
		c7.3-0.6,14.6,0.2,21.9-0.8c3.8-0.5,7.6-1.6,11.1-3.1c0.6-0.2,1.1-0.5,1.6-0.9c1.9-1.8,1-5.1-1.1-6.7c-2.1-1.6-4.7-1.9-7.3-2.5
		c-4.4-1-8.5-3-12.5-4.9c-3.7-1.8-7.3-3.5-11.1-5.3c-0.1,2.2-0.2,4.5-0.3,6.7C109.1,29.5,99,33.2,90,38.7c-1.9,1.1-3.7,2.4-5.8,3.4
		c-8.5,4.1-18.5,2.7-27.8,1.1c-0.9-0.2-2-0.4-2.6-1.1C53.1,41.2,53,40,53,39c-0.2-6.3-0.2-12.7-0.4-19c-6-1.1-12.1,1.4-17.7,3.9
		c-3.3,1.5-6.6,3-9.2,5.4c-6.7,6.3-6.9,17.1-3.5,25.6c0.9,2.3,2.1,4.6,3.9,6.3c2.8,2.5,6.8,3.2,10.6,3.6
		C46.6,65.4,56.6,64.6,66.1,62.1z"/>
	<path fill="#F9F6EF" d="M84.3,17.3c-0.1,1.3-0.2,2.6-0.2,3.9c0,0.5-0.1,1.1,0.2,1.5c0.2,0.4,0.6,0.6,1,0.9c8,5.1,18.1,5.3,27.5,5.3
		c1.7,0,3.4,0,5-0.2c0.5-0.1,0.9-0.2,1.2-0.5c0.2-0.3,0.3-0.6,0.4-1c1-5.6-0.1-11.6-2.9-16.5c-0.2-0.4-0.5-0.8-0.9-1.1
		c-0.3-0.2-0.7-0.2-1.1-0.3C103.9,8.4,92.9,11.2,84.3,17.3z"/>
	<path fill="#89857A" d="M59,16.4c-1.1-1-0.6-2.8,0.2-4.1c2.4-3.7,6.4-6,10.6-7.1C74,4,78.5,4,82.7,4.1c7.2,0.3,14.3,1.2,21.4,2.1
		c3.2,0.4,6.5,0.8,9.2,2.7c-14.2,1.3-28.5,2.6-42.2,6.4c-3.4,0.9-6.8,2-10.3,1.7C60.1,16.9,59.4,16.8,59,16.4z"/>
	<path fill="#F9F6EF" d="M120.5,22.2c1.4,0,2.7,0.6,4,1.2c2.3,1.1,4.7,2.2,7,3.4c-3.7-0.2-7.5,0-11.2,0.4
		C120.6,25.5,120.8,23.8,120.5,22.2z"/>
	<path fill="#89857A" d="M151.5,33.9c-5.7-2.4-11.5-5-17.6-5.7c-4.4-0.5-8.7-0.2-13.1,0.2c-2.1,0.2-4.1,0.4-6.1,0.8
		c-3.2,0.6-6.3,1.8-9.3,3.1c-3,1.1-6,2.4-9,3.5c-1.8,0.7-3.5,1.4-5.2,2.3c-1.8,1-3.4,2.1-5,3.4c-8.3,6.3-16.2,13.4-23.4,21
		c2.9-0.4,5.7-1,8.5-1.8c3.1-0.9,6-2.1,9-3.1c5.4-2.1,10.8-4.1,16.1-6.3c5.8-2.2,11.7-4.5,17.9-5.4c8.1-1.1,16.4,0.4,24.5-0.8
		c2.5-0.4,5-1,7.5-1.6c2.2-0.5,4.7-1.3,5.7-3.3c0.7-1.3,0.7-2.8,0.7-4.3c0-0.6-0.1-1.2-0.5-1.7C152.1,34.1,151.8,34,151.5,33.9z"/>
	<path fill="#9C978D" d="M137.8,29.8c-1.8-0.2-3.6-0.3-5.4-0.3c-12.2,0.1-23.4,8.2-29.8,18.6c12.9-4.8,27.2-1.8,40.8-3.6
		c1.8-0.2,3.7-0.6,5.4-1.5c1.6-0.9,3-2.5,3.1-4.4c0.1-1.3-0.4-2.7-1.1-3.7C147.9,31.1,142.5,30.3,137.8,29.8z"/>
	<path fill="#F9F6EF" d="M77.5,50.7c2.4-0.2,4.5-1.7,6.5-3.1c5-3.7,10.2-7.3,16-9.5c2.4-0.8,4.7-1.5,7.2-2.1
		c9.5-2.4,19.2-4.4,28.9-3.4c5.4,0.5,10.6,2.1,15.8,3.6c0-1.9-2.2-3.1-4.1-3.5c-1.9-0.5-4.1-1.1-4.7-2.9c-8.7-2.8-18.2-1.9-27.2-0.5
		c-4,0.6-7.9,1.3-11.7,2.6c-4.1,1.4-7.9,3.4-11.7,5.5c-4.7,2.7-9.6,5.5-13.2,9.6C78.3,48.1,77.5,49.4,77.5,50.7z"/>
	<path fill="#F2EBD8" d="M79.8,46.6c-1.1,1.1-2.1,2.4-2.1,4c2.1,0.5,4-1.4,5.6-2.9c3.6-3.4,8.2-5.5,12.6-7.5
		c5-2.3,10.3-4.5,15.8-5.3c1.3-0.2,2.6-0.2,3.8-0.7c3.1-1.1,4.9-4.2,7.7-5.8c-5,0.8-10.1,1.8-15.1,3.2c-1.4,0.4-2.8,0.8-4.2,1.3
		c-4.7,1.7-9.2,4.1-13.5,6.5C86.6,41.4,82.7,43.5,79.8,46.6z"/>
	<path fill="#57571D" d="M103.9,68.5c0.1,0.4-0.2,0.8-0.5,1.1c-0.9,1.1-1.8,2.2-2.8,3.3c-0.9,1.1-1.8,2.2-3.1,3
		c-2.1,1.4-4.9,1.8-7.3,1.1c-0.2-0.1-0.5-0.2-0.8-0.3c-0.6-0.5-0.8-1.3-0.3-1.8c1.3-0.1,2.5-0.5,3.4-1.4s1.1-2.2,0.5-3.3
		c-0.8-1.5-3-1.8-4.7-2.1C93.6,67.5,98.8,67.6,103.9,68.5z"/>
	<path fill="#A5A197" d="M110.9,45.2c10.1-1.5,20.3-3.1,29.4-7.9c2.1-1.1,4.4-2.5,6.9-2.1c1.2,0.2,2.4,0.8,3.3,1.8
		c0.4,0.4,0.8,0.8,0.8,1.3c0.2,0.7-0.2,1.3-0.6,1.8c-1.7,2.2-4.3,3.5-7,4.1c-2.8,0.6-5.5,0.6-8.3,0.6c-6.3-0.1-12.6-0.1-18.9-0.2"/>
	<path fill="#FFFFFF" d="M151.3,35.8c0,0.2-0.1,0.3-0.2,0.4c-0.2,0.3-0.7,0.2-1.1,0.2c-1.8-0.3-3.5-0.9-5-1.8c0.2-1,0.9-1.9,1.9-2.3
		c0.3-0.2,0.5-0.2,0.8-0.2C149.8,31.8,151.7,33.9,151.3,35.8z"/>
	<path fill="#CEC6B3" d="M32.5,64.1c-2.1-0.6-4.2-1.5-6-3C21.8,57.4,20.1,51,19.7,45c-0.2-3.4-0.1-6.8,1.4-9.9
		c1.3-2.8,3.4-5,5.9-6.9c7.3-5.8,17-8.7,26.3-8c-1.6,7.6,1.9,15.6-0.4,23c-2.8-1.3-6.3-0.5-8.6,1.6C42,46.8,41,50,40.7,53
		c-0.2,1.5,0,3,0.7,4.4c1,1.9,3.2,3,5.4,3.4s4.4,0.2,6.6,0.5C47.2,65,39.4,66.1,32.5,64.1z"/>
	<path fill="#89857A" d="M49.9,42.1c-5.4,1.5-11,2.1-16.1,4.4c-5,2.4-9.6,7.2-9.2,12.7c-2.1-1.9-3.3-4.6-3.5-7.3
		c-0.3-3.4,1-6.8,2.7-9.9c5.7-10.5,16.4-18.6,28.3-18.9c0.5,4.5,0.9,9,1.3,13.5c0.2,1.3,0.2,2.8-0.5,3.8
		C52.3,41.3,51.1,41.8,49.9,42.1z"/>
	<path fill="none" d="M93.9,68.9c0.2,0.1,0.3,0.2,0.5,0.2"/>
	<path fill="#7C7732" d="M100.2,72.5c-0.7-2.1-2.5-3.7-4.7-4.1c0.8,2.4,0.5,5.1-0.6,7.3c0.7,0.3,1.4,0.5,2.1,0.6
		c1.1,0.1,2.5-0.2,3.1-1.3C100.6,74.3,100.4,73.3,100.2,72.5z"/>
	<path fill="#B7AE98" d="M112.7,139.2c-1.5-1.7-3.3-3.4-5.4-3.7c-1.3-0.2-2.7,0.1-4,0.4c-5.7,1.2-11.3,2.5-16.7,4.7
		s-10.5,5.4-14.1,10c2.7,0.4,5.4,0.8,8.2,1.3c3,0.3,6,0.9,8.7,1.9c3.9,1.1,7.6,2.5,11.2,4.5c-6,3.7-12.3,6.9-18.9,9.3
		c1.2,0.3,2.5,0.6,3.7,0.9c2,0,3.9,0.2,5.9,0.9c0.8,0.1,1.8,0.1,2.6,0c-2.1,5.7-7.6,9.3-12.9,12.2c-13.5,7.2-28.3,11.2-42.8,15.9
		c-3.2,1-6.4,2.1-9.3,3.9c-1.1,0.8-2.1,1.6-3.1,2.5c-1.6,1.7-2.8,3.7-3.3,5.9c3.1-1.1,6.7-0.4,9.8,0.9c3.1,1.3,5.6,3.4,9,4.6
		c0.6,0.3,1.2,0.5,1.8,0.5c1.2,0,2.2-1,3.1-1.9c11.7-12.1,28.2-17.7,43-25.6c3.1-1.6,6.1-3.4,9-5.4c2.8-2,5.5-4.3,8.1-6.6
		c3.3-2.8,6.6-5.7,9.3-9.3c2.7-3.5,4.5-7.7,4.5-12.2C119.9,149,116.6,143.6,112.7,139.2z"/>
	<path fill="#F2EBD8" d="M203.3,166.9c1.5,0.5,2.8,0.9,4.2,1.5c-4.1-10.4-10-20.5-19.1-26.9c-2.1-1.5-4.4-2.8-6.7-4.1
		c-2.8-1.6-5.7-3.2-8.6-4.8c-11.8,19.6-23.7,39.2-38.9,56.3c-12.2,13.6-26.3,25.4-40.3,37.1c6.5,3.1,14.2,2.1,21.3,1
		c8.5-1.3,17-2.6,25.5-4.2c3.6-0.9,7.2-1.8,10.8-2.8c2.2-0.5,4.4-1.1,6.5-1.7c1.2-0.6,2.3-1.5,3.1-2.4c-4-1.4-8-3.9-8.5-7.7
		c-0.8-1.1-1.4-2.3-1.8-3.5c-0.9-2.3-1.4-4.7-1.6-7.2c-0.5-2.9-0.4-5.8,0.1-8.7c0.3-3.4,1-7.1,3.6-9.3c3-2.4,7.3-2.1,11.1-1.7
		c1.9,0.2,3.9,0.5,5.8,0.8c2.6,0.2,5.2,0.5,7.6,0.8c4.2,0.5,8.1,1.8,12.2,2.9c0.8,0.2,1.7,0.3,2.5,0.5c0.2-7.1-2.9-14.3-8.2-19.1
		c2.6,0.1,5.2,0.3,7.8,0.7C195.6,164.8,199.6,165.7,203.3,166.9z"/>
	<path fill="#F9F6EF" d="M201.8,166.2c1.8,0.2,3.6,0.6,5.4,1.2c-4.4-13.2-14.5-24.6-27.3-30.2c-1.9-0.8-4.1-1.6-6.2-1
		c5.6,3.4,9.3,9.6,9.9,16.2c0.2,1.8,0.1,3.7-0.7,5.4c-1.5,3.3-5,4.9-8.5,6c1.6-0.1,3.3,0.9,4.1,2.4c1.1,2,0.6,4.6-0.8,6.5
		c-1.3,1.8-3.4,3.1-5.4,4.1c-2.8,1.2-5.8,2.1-8.9,2.3c9.9-0.8,20,0.6,29.5,4.1c-1.3-7.3-4.7-14.2-9.8-19.7
		C189.3,162.7,195.8,163.7,201.8,166.2z"/>
	<path fill="#F9F6EF" d="M131.5,224.9c-0.9,0.3-1.8,0.6-2.7,1C129.7,225.8,130.6,225.4,131.5,224.9z"/>
	<path fill="#F9F6EF" d="M161.8,216.6c-0.5-0.2-0.9-0.5-1.4-0.8c-4-1.2-7.3-4.6-9.2-8.4c-2.2-4.4-2.8-9.6-3.4-14.5
		c-0.2-1.3-0.3-2.5-0.5-3.8c-1.8,5.9-3.5,11.8-5.3,17.7c-1.2,4-2.4,8-4.6,11.6c-1.7,2.8-4,5.1-6.8,6.6c8.5-2.9,17.7-3.8,26.2-6.6
		C158.6,217.9,160.2,217.3,161.8,216.6z"/>
	<path fill="#89857A" d="M92.7,142.8c-1.7,0.8-3.4,1.6-4.1,3.4c-0.9,2.6,1.5,5,3.7,6.7c1.1,0.8,2.2,1.8,3.4,2.6
		c-5-1.8-10.5-2.7-15.8-3.4c-2.6-0.4-5.2-0.8-7.8-1.1c1.3-0.2,2.2-1.3,3.1-2.3c1.5-1.6,3.3-3.1,5.1-4.4c8.1-5.5,18.2-7,28-7
		c0.6,0,1.3,0.1,1.6,0.5C103.9,137.8,98.2,140.3,92.7,142.8z"/>
	<path fill="#89857A" d="M101.6,159.7c-4.2,0.9-6.4,5.9-5.7,10.1c-4.1-1.5-8.7-1.3-13.1-1.1C87.6,165.9,96.3,161,101.6,159.7z"/>
	<path fill="#89857A" d="M79,182.3c-8.6,3.4-17.1,7.2-25.6,11.3c-4.2,2.1-8.5,4.3-11.9,7.6s-5.9,7.8-5.6,12.5
		c-5.1-2-10.6-3.8-16-3.1c2.7-6.3,9.1-10.3,15.6-12.5c6.5-2.1,13.4-2.9,20-5"/>
	<path fill="#5A4F22" d="M119.1,103.8c1.2-1,2.9-1.2,4.4-1.4c2.1-0.2,4.3-0.1,6,1c1.8,1.1,2.8,3.1,2.8,5.1c0.1,2.1-0.8,4.1-2.2,5.5
		c2.1-0.9,4.3-1.9,6-3.4c1.8-1.5,3.1-3.7,3.1-6s-1.3-4.4-2.5-6.3c-1.8-2.9-3.7-5.8-5.6-8.7c-1.1-1.8-2.4-3.6-4.3-4.4
		C125.8,91.9,123.1,98.3,119.1,103.8z"/>
	<path fill="#685D28" d="M147.1,123.4c-1.2-4.7-2.5-9.5-4.7-13.8c-0.5-0.9-1.1-1.9-2.1-1.8c-0.5,0.1-0.8,0.4-1.1,0.7
		c-3,2.8-5.8,5.7-8.4,8.7c1.5-0.8,3.4-0.6,5,0.2s2.8,2.1,3.7,3.5c0.9,1.5,1.5,3.2,1.8,5c0.6,5.1-2.8,10.5-7.7,12.1
		c2.9,0.4,6,0.8,8.9,0s5.6-2.8,6.2-5.7c0.4-1.8-0.1-3.7-0.6-5.4C147.7,125.7,147.4,124.6,147.1,123.4z"/>
	<path fill="#7B6D33" d="M144.7,158.7c0.7-0.8,1-2,1.2-3.1c1.5-6.6,2.4-13.3,2.6-20c-4.4,1.5-9,3.1-13.4,4.7
		c2.2,0.6,4.7,1.5,5.5,3.7c0.3,0.8,0.3,1.5,0.2,2.4c-0.2,3.1-1.7,6.2-4.1,8.3c-2.4,2.1-5.6,3.1-8.7,2.8c3.4,1.9,7.1,3,11,3.1
		C141,160.6,143.4,160.3,144.7,158.7z"/>
	<path fill="#685D28" d="M130.1,171.5c-3.9,3.4-9.2,4.8-14.2,6.2c4.7,0.6,9.3-0.7,13.8-2c2.1-0.6,4.4-1.2,6.2-2.4
		c4.1-2.7,6-7.6,7.3-12.2c-5.3,0.2-10.6-0.4-15.7-1.8c2.1,0.7,4.1,2.4,5,4.4c0.3,0.7,0.5,1.4,0.5,2.1
		C133.3,167.9,131.9,170,130.1,171.5z"/>
	<path fill="#7B6D33" d="M114.7,179.3c1.9,0.4,3,2.6,2.8,4.5s-1.5,3.6-2.7,5c-1.8,2.1-3.7,4.1-5.8,5.9c-3.3,2.8-7.4,5.4-11.7,4.6
		c1.8,0.2,2.7,2.1,4.1,3.2c1.6,1.1,3.7,1.1,5.6,0.5c1.8-0.7,3.4-1.9,4.9-3.1c8.8-7,17.9-14.3,23.1-24.3
		C128.1,176.3,121.3,177.5,114.7,179.3z"/>
	<path fill="#8C7D3F" d="M103.2,204.5c-3.4-1.6-6.7-3.3-10-5.1c0.9,1.5,0.8,3.5,0.2,5.2c-0.7,1.7-2,3-3.4,4.1
		c-6.3,5.4-15.4,7.3-23.4,5.1c5,3.1,11.2,3.4,17,3.5c0.8,0,1.5,0,2.2-0.2c0.8-0.2,1.4-0.6,2.1-1C93.2,212.8,98.8,209.3,103.2,204.5z
		"/>
	<path fill="#9A8959" d="M67.3,216.3c1.8,2.2,2.2,5.2,1.9,8c-0.3,2.8-1.4,5.4-2.7,8c-0.8,1.7-1.8,3.3-3,4.7
		c-4,4.1-10.3,4.5-16.1,4.6c6.5,3.6,15.3,2.6,20.8-2.5c1.5-1.3,2.6-2.8,3.8-4.4c4-5,7.9-10.1,11.9-15.2
		C78.4,218.3,72.8,217.3,67.3,216.3z"/>
	<path fill="#8C7D3F" d="M65.9,268.6c0.2-0.5,0.2-1.1,0.2-1.8c-0.2-2.6-1.1-5.1-1.4-7.7c-0.8-6.1,1.1-12.2,3.1-18.1
		c-4.8,2.7-10.3,5.5-15.7,4.1c3.6,3.6,7,7.7,9,12.4c2,4.7,2.6,10.2,0.8,15C62.6,270.7,65.2,270.4,65.9,268.6z"/>
	<path fill="#5A4F22" d="M71.4,295c-4.2,0.2-8.3-1.7-11.8-3.9c-5.7-3.7-10.8-8.4-14.7-14.1c3.4,0.2,6.8,0.5,9.9-0.7
		c2.5-0.9,4.8-2.8,7.5-3c-2.6,3.6-2.4,8.6-0.3,12.5s5.8,6.7,9.8,8.6C72.1,294.7,71.7,294.9,71.4,295z"/>
	<path fill="#685D28" d="M81.1,290.1c0,0.2,0.1,0.3,0.1,0.5c2.4,2.1,5.5,3.4,8.6,3.4c0.2,0.2-0.2,0.5-0.4,0.5
		c-3.7,1.3-7.6,2-11.5,2.1c-1.3,0-2.8-0.1-3.4-1.1C76.7,293.7,78.8,291.9,81.1,290.1z"/>
	<path fill="#383219" d="M110.8,106.9c1.5-0.2,3-0.5,4.4-1c-0.4,1.3-0.8,2.8-0.3,4.1c0.3,0.9,1,1.6,1.8,2.2c1.3,1.2,2.8,2.4,4.6,2.8
		c1.3,0.3,2.8,0.2,4,0.7c0.5,0.2,1.1,0.8,0.8,1.2c-0.1,0.2-0.3,0.2-0.5,0.2c-0.9,0.3-1.9,0.3-2.8,0.3c-0.7,0-1.3,0-1.9-0.2
		c-0.5-0.2-0.8-0.5-1.1-0.8c-1.4-1.3-2.8-2.5-4.1-3.8c-1.4-1.2-2.7-2.5-4-3.8C111.1,108.2,110.6,107.5,110.8,106.9z"/>
	<path fill="#49401B" d="M126.5,138.6c-0.2,0-0.3,0-0.5-0.1c-0.2-0.2-0.2-0.4-0.2-0.6c0.2-1.6-0.1-3.2-0.3-4.8
		c-0.1-0.7-0.2-1.5-0.3-2.1c-0.6-4-1.2-8-2.7-11.9c1.3,0.2,2.6,0.1,3.8-0.5c-1.2,3.2-1.1,6.8-1.1,10.3c0,1.4,0.1,2.8,0.5,4.1
		c0.5,1.1,1.1,2.1,1.9,3c0.7,0.8,1.4,1.8,2.1,2.6C128.7,138.6,127.7,138.6,126.5,138.6z"/>
	<path fill="#5A4F22" d="M125.2,146.6c0-1.2-0.2-2.5,0.2-3.7c0.6-1.8,2.5-3.2,4.4-3.1c0,0.2,0,0.5,0,0.7c-1.4,0.3-2.6,1.4-3,2.8
		c-0.1,0.3-0.2,0.6-0.5,0.8c-0.7,4.4-0.6,8.8,0.2,13.1c-0.8-0.2-1.6-0.3-2.3-0.7c-0.7-0.4-1.2-1.1-1.1-2c0.1-0.5,0.3-0.9,0.5-1.3
		C124.6,151.1,125.1,148.8,125.2,146.6z"/>
	<path fill="#49401B" d="M109.2,175.7c0-0.5,0.4-0.9,0.7-1.3c1-1.1,2-2.4,3-3.5c0.6-0.7,1.2-1.5,1.7-2.2c0.5-0.8,1-1.8,1.5-2.7
		c0.7-1.1,1.5-2.1,2.3-3.1c1.3-1.6,2.6-3.2,4-4.8c0.4-0.5,0.8-0.9,1.4-1s1.1,0.4,1.5,0.8c0.6,0.5,1.1,1.1,1.8,1.7
		c-1.9-0.4-3.9,0.2-5.5,1.2c-1.6,1.1-2.9,2.6-4.1,4.1c-1.5,1.9-2.8,3.9-3.3,6.2c-0.5,2.4-0.2,5,1.3,6.8c-1.5,0.2-3.2,0-4.6-0.6
		C110,177.2,109.2,176.6,109.2,175.7z"/>
	<path fill="#5A4F22" d="M91.9,196.2c-1.4-1.8-2.4-3.9-3.1-6c-0.1-0.3-0.2-0.6-0.2-0.9c0.1-0.8,0.9-1.3,1.6-1.7
		c4.7-2.6,9.3-5.6,13.7-8.8c1.1-0.8,2.2-1.7,3.6-1.9s2.9,0.5,3.2,1.8c-2.2,0-4.3,0.8-6.3,1.6c-3.4,1.5-6.9,3.4-8.6,6.7
		c-1.8,3.2-1.6,7-1.5,10.7C93.4,197.8,92.5,197,91.9,196.2z"/>
	<path fill="#685D28" d="M55.3,206.9c-0.2-0.2-0.3-0.5-0.3-0.7c0-0.4,0.3-0.6,0.6-0.8c9.6-8,21.6-12.2,33.4-16.3
		c-0.8,2,0.3,4.2,1.4,6c0.3,0.5,0.6,1.1,0.9,1.5c-4.1-1.8-8.7-2.8-13.2-2c-4.4,0.8-8.6,3.3-11,7.1c-2.3,3.9-2.4,9.1,0.1,12.8
		C62.5,213.6,58.2,210.8,55.3,206.9z"/>
	<path fill="#7B6D33" d="M53.3,206.7c1.1,2.4,3.3,4.4,5.8,5.3c-5.5,1.1-11.6,2.4-15.1,6.8c-2.8,3.3-3.7,8-2.9,12.2
		c0.8,4.3,3.1,8.2,6.1,11.3c-4.5-1.5-9-2.9-13.5-4.4c-0.2-5.9,3.1-11.3,6.6-16.1c2.3-3.2,4.7-6.3,7-9.5
		C49,210.2,50.8,207.9,53.3,206.7z"/>
	<path fill="#685D28" d="M46.4,273.4c0.4,0.2,0.8,0.5,1,0.9c0.2,0.8-1,1.3-1.8,1.1c-2.1-0.3-3.7-2.1-4.8-4c-6.4-9.5-9.3-21.3-8-32.7
		c4.7,0.2,9.3,1.6,13.3,3.9c-3.8,0.6-7,3.4-8.7,6.9s-1.9,7.5-1.4,11.3c0.2,1.4,0.5,2.7,1,4C38.6,269,42.5,271.5,46.4,273.4z"/>
	<path fill="#49401B" d="M54.7,287c-1.5-1.5-3.1-2.9-4.7-4.4c-1.1-1-2.1-2-3-3.2c-0.5-0.8-1-1.7-1.3-2.5c3,0.5,6,0.6,9,0.4
		c0.1,0.2-0.2,0.5-0.4,0.4C53.7,280.7,53.8,284,54.7,287z"/>
	<path fill="#49401B" d="M95.2,298.9c2-0.6,3.8-1.6,5.8-2.1c2.4-0.7,5-0.6,7.6-0.6c2.1,0,4.4,0,6.5,0.1c0.8,0,1.9,0.2,2.2,0.9
		c0.2,0.5,0,1.1-0.4,1.5c-1,1.5-2.8,2.1-4.6,2.5c-8.3,2.1-17.3,2.1-25.6,0.2c-1-0.2-2.1-0.7-2.4-1.7C87.9,299.8,91.7,300,95.2,298.9
		z"/>
	<path fill="#461020" d="M61,120.5c0.2-1.5,0.9-2.9,1.7-4.3c2.8-5.2,6.1-10.2,10-14.7c2.6-3.1,5.4-6,7.3-9.5
		c-1.3-0.3-2.6,0.2-3.6,1.1s-1.7,2-2.5,3c-2.9,3.9-6.8,7-9.6,11c-1.8,2.6-3,5.6-4.1,8.6c-0.3,0.8-0.7,1.8-0.6,2.7
		C59.6,119.3,60.1,120.3,61,120.5z"/>
	<path fill="#5C1329" d="M61.8,117.5c-0.3,0.5-0.6,1-0.7,1.5c-0.4,0-0.7,0.4-0.7,0.8c-0.2,0-0.5,0-0.8,0c-0.2-1.1-0.8-2-0.8-3.1
		s0.7-2.1,1.5-3c0.5-0.7,1.1-1.4,1.6-2.1c1-1.9,2.2-3.7,3.6-5.3c0.3-0.3,0.6-0.8,0.4-1.1c0.2-0.1,0.5-0.2,0.7-0.2
		c0.2,1.4,0.4,2.8-0.1,4.1c-0.2,0.5-0.4,0.8-0.5,1.3c-0.5,1-1,1.9-1.5,2.9C63.5,114.8,62.6,116.2,61.8,117.5z"/>
	<path fill="#400F20" d="M67.4,103.4c-0.8,1.1-1.5,2.1-2.2,3.1c-1.7,2.4-3.4,4.7-5.4,6.9c-1.4-5.7-0.1-11.6,2.1-17.1
		c4-0.2,7.9-0.4,11.9-0.6c-0.8,0.8-1.5,1.8-2.3,2.7c-0.2,0.2-0.3,0.4-0.5,0.6C69.7,100.5,68.6,101.9,67.4,103.4z"/>
	<path fill="#400F20" d="M88.5,89.3c-1.2-0.2-2.4-0.2-3.6,0.2c-0.8,0.3-1.4,0.8-2,1.5c-5,4.6-9.6,9.8-13.7,15.3
		c-0.6,0.8-1.1,1.6-1.5,2.6c-0.2,0.6-0.2,1.3-0.2,2c-0.1,2.7-0.2,5.4-0.2,8c1.9-3.4,4-6.7,6.2-9.9c5.4-7.9,12-15.5,21-19
		C92.5,89.7,90.5,89.5,88.5,89.3z"/>
	<path fill="#F9F6EF" d="M61.5,97.5c-1.3-0.6-2.5-1.2-3.8-1.8c-2.4,5.4-3.5,11.4-3.1,17.3c0.1,0.8,0.2,1.7,0.5,2.4
		c0.7,1.5,2.4,2.4,3.9,3.2C58.9,111.5,59.7,104.4,61.5,97.5z"/>
	<path fill="none" d="M46.3,66.9c2.7,1.8,6,2,9.1,2.2c1.8,0.2,3.8,0.2,5-1.1c1.1-1.1,1.5-2.8,2.8-3.2c0.2,2.4,3,3.4,5.4,3.4
		c3.6-0.2,7-1.8,10.2-3.3c7.7-3.7,15.2-7.3,22.9-11"/>
	<path fill="#A78B65" d="M66.1,264.6c0.2,1.8,0.7,3.5,1.3,5.3c2.1,6.5,4.4,13.3,9.8,17.5c3.1,2.5,7.1,3.8,10.9,4.8
		c7,1.9,14.2,3.1,21.5,3.7c3.7,0.2,7.7,0.3,11.1-1.3c-9.7-3.1-19.7-6.4-27.8-12.5c-8.2-6.2-14.4-15.8-13.9-26
		c0.5-9.4,6.3-17.5,11.9-25c-11.2,5.8-21,15.5-24.3,27.8C66.3,260.8,66,262.7,66.1,264.6z"/>
	<path fill="#C4A574" d="M35.4,228.3c0.5-1.4,1.2-2.7,2.1-3.7c-3,0.5-5.9,1.7-8.3,3.4c-2.4,2.1-3.9,5.1-4.1,8.3
		c2.8,0.3,5.6,0.6,8.3,0.9c0-2.9,0.5-5.7,1.4-8.5C35,228.4,35.2,228.1,35.4,228.3z"/>
	<path fill="#C4A574" d="M14.1,241.1c-1.1,1.7-1.5,4.2-0.3,5.5c0.4,0.4,0.8,0.6,1.3,0.8c1.9,1,3.9,2,6,2.3c2.1,0.4,4.4,0,6.3-1.5
		c1.3-1.1,2.2-2.5,3.1-4c0.6-1,1.2-2.1,1.5-3.2c0-0.2,0.1-0.3,0-0.5c-0.1-0.2-0.2-0.2-0.3-0.2c-1.4-0.5-2.7-1.1-4.1-1.7
		c-2.7-1.1-5.5-2.2-8.4-1.5C17.3,237.7,15.4,239.2,14.1,241.1z"/>
	<path fill="#887052" d="M47.5,280.8c-0.7-1.1-1.2-2.3-2.2-3.1c-0.9-0.8-2.1-1.1-3.2-1.3c-9-2.1-18.4-2.4-26.7-6.1
		c-1.8-0.8-3.5-1.8-5-3.1c-1.4-1.3-2.4-2.8-3.1-4.6l0,0l-0.2,1.1c1.1,9.5,4.9,19.7,13.5,23.7c2.4,1.1,5.1,1.7,7.7,2.2
		c10.8,2.1,21.9,4.4,32.7,2.7C58.6,286.7,50.8,285.7,47.5,280.8z"/>
	<path fill="none" d="M168,247c7.5-1.5,15,1.8,22,4.9c3.7,1.7,7.3,3.4,10.9,5c1.1,0.5,2.2,1.1,3,2c1.7,2.1,1.1,5.9,3.4,7.3"/>
	<path fill="#887052" d="M69.1,274.9c2.1,2.8,5.6,5,9,4.3s5.9-5.3,3.5-7.9c6.3,3.6,12.9,6.8,20,8.4s14.8,1.5,21.4-1.4
		c2.4-1.1,4.7-2.4,7.2-3.4c5.7-2,11.9-1.1,17.6,0.8c5.7,1.9,11,4.7,16.7,6.6c6.3,2.1,12.9,3.3,19.4,4.1c4.7,0.6,9.6,1.1,14.2-0.3
		c4.5-1.5,8.6-5.5,8.6-10.3c0.2,8.7-5.7,16.9-13.5,21c-7.7,4.1-16.9,4.7-25.6,3.7s-17.1-3.6-25.6-5.6c-4.8-1.1-9.7-2.1-14.6-1.8
		c-4.4,0.2-8.6,1.2-12.9,1.8c-10.9,1.5-22.2,0-32.3-4.2c-3.7-1.5-7.5-3.7-9.3-7.3C71.6,280.5,71.5,276.9,69.1,274.9z"/>
	<path fill="#C4A574" d="M189.1,249.3c-2.3-2.3-5.8-2.6-9-2.8c-15.3-0.9-30.8-1.8-45.8,1.5c-3.1,0.7-6.1,1.5-9.2,2.1
		c-14.5,2.9-29.8,0.9-43.1-5.4c0.1,1.7,0,3.4-0.2,5c7.6,1.3,15.2,2.6,22.9,2.7c13.1,0.2,26.2-3.1,39.2-1.2c7,1,13.8,3.4,20.8,5.1
		s14.4,2.5,21.1,0.4c2.2-0.7,4.7-2.2,4.6-4.6C190.5,251,189.8,250,189.1,249.3z"/>
	<path fill="#C4A574" d="M83.1,245.7c-0.5-0.2-1.1-0.4-1.3-0.8c-0.9-1.5,2.1-2.4,2.8-4.1c9.7,2.4,19.8,3.1,29.8,2.4
		c16.8-1.2,33.2-7,50-7.9c-11.9,6.3-25.2,9.3-38.4,12.3c-7.2,1.6-14.5,3.2-21.9,2.9C97,250.2,89.9,248,83.1,245.7z"/>
	<path fill="#CEC6B3" d="M140.1,186.1c-9.5,7-15.9,18.1-17.4,29.8c-0.5,3.5-0.4,7.3,1.9,10.1c-9.2,1.4-18.4,2-27.7,1.9
		c-0.5,0-1.1,0-1.5-0.4s-0.5-1.1,0-1.4c1.8-1.7,3.7-3.4,5.6-5c6.3-5.6,12.6-11.2,18.9-16.8c3.6-3.2,7.1-6.3,10.7-9.6"/>
	<path fill="#CEC6B3" d="M162.2,152.7c1.1-2.4,2.6-5,5.2-5.7c3.4,1.4,5.4,5.4,4.3,8.9c-0.8,2.9-3.4,5-4.4,8
		c-4.9-0.2-9.8,1.4-13.6,4.4c-0.5-1.1,1.1-1.9,2.1-2.8c0.5-0.5,0.8-1.1,1.1-1.8C158.7,160.1,160.5,156.4,162.2,152.7z"/>
	<path fill="#CEC6B3" d="M159.8,167.5c0.5,2.1,0.9,4.4,0,6.3c-0.3,0.8-0.8,1.4-1.4,2c-1.8,2-4,3.7-6.3,4.9c-2,1-4.1,1.7-6.1,2.4
		s-4,1.3-6,2c3.2-2.7,5.7-6.3,7-10.3c0.3,0.2,0.6-0.2,0.8-0.6C149.3,169.4,154.8,166.3,159.8,167.5z"/>
	<path fill="#F2EBD8" d="M194.7,76.8c-0.1-5.7-2.1-11-4.2-16.3c-1.3-3.4-2.6-6.7-4.7-9.6c-2.1-2.8-5.2-5.2-8.7-5.7
		c6.5,5.7,9.4,14.5,10.4,23c2.6,22-5.4,43.8-14.2,64.2c5.9-8,11.1-16.7,15.5-25.6c1-2.1,2-4.1,2.6-6.3c1.1-3.6,1.3-7.4,1.8-11.2
		C193.7,85.2,194.7,81,194.7,76.8z"/>
	<path fill="#CCBA9B" d="M178.9,119.6c-1.5,2.4-2.7,4.7-4.2,7c-6.3,9.3-16.3,15.1-26,20.7c-1.8,6.3-3.5,12.6-6,18.7
		c-0.8,1.9-1.6,3.8-1.8,5.9c4-0.3,8.3-0.8,11.3-3.4c1.4-1.2,2.3-2.8,3.2-4.3c6.8-11.4,13.1-23.1,18.7-35.1"/>
	<path fill="#CCBA9B" d="M139.7,182.8c3.5-3.9,7.1-7.9,9.1-12.8c-3.3,0.2-6.6,0.9-9.7,2.1c-0.7,3.1-2.9,5.5-5,7.8
		c-5,5.4-10.1,10.7-15.7,15.5c-8.6,7.3-18.4,12.9-27.8,19.2c-2,1.4-4.3,3.3-4,5.7c9.6-7.2,20.2-13.2,31.4-17.7
		c1.7-0.7,3.4-1.3,4.9-2.3c2.3-1.5,4.2-3.5,6-5.5C132.5,190.7,136.1,186.8,139.7,182.8z"/>
	<path fill="#5C4935" d="M127.9,289.9c4.1-0.8,8.2-0.8,12.2-0.1c6.2,1.1,11.9,3.8,18.1,5.4c2.6,0.7,5.3,1.1,8,1.5
		c3.5,0.5,7,0.8,10.6,0.8c9.5-0.1,19-3.2,26.6-8.7c-4.1,5.5-10,9.7-16.6,11.9c-3.6,1.1-7.4,1.8-11.2,1.6c-4.1-0.2-8.3-1.2-12.2-2.2
		c-2.9-0.8-5.9-1.5-8.8-2.2c-6-1.5-12.2-3.1-18.4-3.3c-7.9-0.2-16.4,1.5-23.2-2.6C117.9,292.9,122.9,290.9,127.9,289.9z"/>
	<path fill="#5C4935" d="M115.6,294.5c0-0.6-0.6-1-1.1-1.3c-0.9-0.5-1.8-1.1-2.8-1.5c-0.8,1-2.1,1.3-3.4,1.5c-2,0.4-4,0.8-6,1.2
		c0.8-0.1,1.7,0.3,2.5,0.7c2.8,1.1,5.8,0.9,8.7,0.7C114.5,295.6,115.6,295.3,115.6,294.5z"/>
	<path fill="#5C4935" d="M25,288c1.8,1.6,4.1,2.8,6.5,3.3c2.1,0.5,4.3,0.6,6.4,0.7c7.1,0.2,14.2,0.5,21.4,0.8
		c-0.5-1.6-1.7-3-3.2-3.7c-1-0.5-2.1-0.6-3.1-0.7c-10.4-1.1-21.3,1.5-31.1-2.4C23.2,286.2,24.1,287.1,25,288z"/>
	<path fill="#A5895B" d="M50.2,85.8C49.5,86,48.7,86,48,86c-1.2,0-2.4,0-3.6,0c-1.2,0-2.7-0.1-3.5-1c-0.2-0.2-0.4-0.5-0.5-0.8
		c-0.7-1.5-0.5-3.4,0.5-4.7c0.8-1.1,2.1-1.9,3.3-2.5c2.4-1.1,5-1.9,7.7-2.2c-1.4,0.7-2.8,1.5-3.7,2.7c-0.9,1.3-1.1,3.2,0.1,4.3
		c0.5,0.5,1.3,0.7,2.1,0.8c2.1,0.4,4.2,0.4,6.3,0c-1.1,0.7-2.3,1.4-3.4,2.1C52.1,85.1,51.2,85.6,50.2,85.8z"/>
	<path fill="#7D623A" d="M55.4,74.3c0.1,0.1,0.2,0.2,0.2,0.3c0.7,1.1,0.1,2.2,1.8,2.9c0.9,0.4,2,0.3,2.9,0.2c0.5-0.1,1-0.2,1.5-0.5
		c2.5-1.9,0.8-10.8,0.5-13.5c0-0.2-0.1-0.5-0.2-0.6c-0.2-0.2-0.5-0.2-0.7-0.2c-5.1,0.4-9.9,3.1-15.1,3.3c0.8,1,1.5,1.9,2.3,2.9
		c1.2,1.6,2.6,3.3,4.6,3.9C54.3,73.5,54.9,73.7,55.4,74.3z"/>
	<path fill="#BCB4A2" d="M56,15.1c0.7-1.6,3.5-4.4,5.1-5.4c-1.5,2-3.8,5.4-2.5,6.8c0.7,0.7,1.8,0.9,2.8,1c2.4,0.2,5,0.2,7.4-0.3
		c-2,4.7-2.8,9.8-2.2,14.8c0.5,4.2,1.9,8.3,3.4,12.3c-5.4,0.2-10.7-0.8-15.6-2.8c-0.2-0.1-0.5-0.2-0.7-0.5s-0.2-0.7-0.2-1
		c0.2-6.2,0.3-12.3,0.5-18.5c0.1-1.7,0.1-3.4,0.9-4.9C55.1,16.2,55.5,15.6,56,15.1z"/>
	<path fill="#CEC6B3" d="M69.1,16.8c-2.1,1.4-2.8,4.3-3.1,6.8c-0.5,3.4-0.7,6.8,0.1,10.1c0.2,1,0.6,2,0.9,3c0.8,2.4,1.7,4.7,2.6,7.2
		c3.7-0.5,7.7,0.9,11.1-0.7c0.7-0.3,1.4-0.8,2.1-1c1.8-1.8,4.1-3.4,6.6-4.4c-0.9-0.3-2,0.2-2.9-0.2c-0.4-0.2-0.7-0.5-1-0.8
		c-1.5-1.5-3-3-4.5-4.4c-1.1-1.1-2.4-2.3-3.4-3.7c-2.7-3.5-3.8-8.5-3.2-12.9c0.9-0.5,1.5-1,1.6-2C74.3,15.9,71.2,15.5,69.1,16.8z"/>
	<path fill="#E5D3AE" d="M184,224.5c-0.2-1.1-0.4-2.1-0.8-3.1c-0.7-2.1-1.9-4.1-3.4-5.6c-0.9-0.8-1.9-1.6-2.9-2.3
		c-0.3-0.2-0.7-0.5-1.1-0.5c-0.2,0.9,0.1,1.8,0.5,2.6c0.2,0.3,0.5,0.8,0.3,1.1c-0.1,0.1-0.2,0.2-0.2,0.3s0,0.2,0.1,0.3
		C177.8,220.6,180.4,223.9,184,224.5z"/>
	<path fill="#E5D3AE" d="M166.8,231.8c-1.1-1,5.6-5.1,5.7-6.4c0-0.9,0.5-1.8,0.9-2.5c1.1-1.9,2-4,2.7-6c0.8,1.5,1.8,2.9,3,4.1
		c1.3,1.5,2.9,2.8,4.8,2.9c0.1,3.1-0.5,8.8-0.4,11.8C180,236.2,169.5,234.1,166.8,231.8z"/>
	<path fill="#9A7F5F" d="M115.2,110.2c-6.7-3.3-14.8-1.2-21.7,1.6c-6.3,2.7-12.5,5.9-18.2,9.8c11.2-2.4,24-4.1,33.4,2.8
		c8.6,6.2,11.3,17.5,12.8,28c0.2,1.5,0.7,3.2,2.1,3.4c0.3-8.3,2.5-16.4,2.4-24.6C125.8,122.9,122.6,113.8,115.2,110.2z"/>
	<path fill="none" d="M51.3,72.5c-0.2-0.1-0.3-0.2-0.4-0.5c-0.8-1.1-2.1-1.7-3-2.8c-0.9-1.1-1.3-2.5-1.6-3.9c3.1,0.2,6.3,0,9.5-0.7
		c-0.1,2.6-0.1,5.3,0.1,7.9c-1.4,0-2.7,0-4.1,0C51.6,72.6,51.5,72.6,51.3,72.5z"/>
</g>
<g id="lines">
	<path fill="#1E1B12" d="M209.9,263.5c-1.8-10-10.8-14.5-19.7-17c-0.5-0.2-1-0.2-1.5-0.4c-0.2-3.2-1.5-6-3.4-8.3
		c0.1-0.1,0.2-1.6,0.2-2c0.9-6.6,0.6-13.9-3.2-19.7c-2.3-3.4-5.2-6.4-8.1-9.4c0.4,3.7,0.8,7.7-0.3,11.4c-1.4,4.2-4,7.4-7.3,10.3
		c-5.2,4.4-11.7,6.4-18.4,7.3c-18.8,4.5-40,9.4-57.7-0.9c1.6-1.9,3.4-3.7,5.1-5.5c0,0.1,0.1,0.1,0.1,0.2c0.3-0.2,0.7-0.2,1.1-0.2
		c12.5-0.1,25.1-1.6,37.3-4c6.1-1.2,12.1-2.9,18.1-4.4c4-1,7.9-1.9,11.5-3.7c-11.5-4.8-16.6-18.7-13.1-30.4c0.8-4,3.1-7,8-7.3
		c6.3-0.5,13.2,0,19.5,0.8c5.4,0.7,10.4,2.5,15.5,3.7c-0.8-6.6-2.3-12.8-6.7-17.4c-0.2-0.3-0.4-0.7-0.4-1c0-0.2,0-0.4,0.1-0.6
		c0.1-0.2,0.4-0.3,0.7-0.3c8,0.3,16,2.1,23.1,5.6c0.2-0.4,0.2-0.8,0-1.2c-5.3-16.7-17.8-30.2-34-36.7c11.7-18.4,23-39.4,19.4-62
		c-3.1-19.2-19.7-38-40.2-33.1c-0.1-0.5-0.5-1.7-0.5-1.6c-1.8-5.4-13.7-7.8-18.9-8.6c-4.9-2.3-9.9-4.4-15.1-6
		c-0.3-6.7-1.9-14.3-8-16.1c-10.3-2.9-22.4-3.2-33-3.1c-8.9,0.2-19,1.9-25.2,8.6c-1.9,2-2.6,4.5-3,7.2c-0.1,0-0.2,0-0.3,0
		c-10.3-0.2-20.9,3.5-27.5,10.9c-3,3.4-5.1,7.4-6,12.3c-1,5.2-0.2,10.4,2.1,15c-2.1,0.2-4.2,1-6,3c-5,5.2-5,14.9-3,21.3
		c0.1,0.2,0.2,0.5,0.2,0.7c1.3,3.1,3.3,6,5.6,8.6c3.7,3.3,7.5,6.4,10.8,10.1c0.9,0.9,1.1,0.8,1.1,1.7c0.1,6,2.3,11.2,6.9,14.5
		c0-1.1-0.1-2.2-0.1-3.3c0-1.7,1.6-2.2,2.8-1.7c1.1,0.3,1.8,1,2.8,1.6c1.4,0.8,2.9,1.4,4.4,2c0.3,0.2,0.5,0.3,0.5,0.3l0,0
		c0.2,0.2,0.2,0.4,0.2,0.4l0,0l0,0l0,0c0,0.1,0,0.5,0,0.5l0,0c0,0.1,0,0.1-0.2,0.4c-2.7,5.4-3.5,13.5-1.1,19.4
		c-3.7,4.3-8,8-13.4,10.7c1.8,0,3.9,0.1,5.6-0.3c1.5-0.6,1.5-0.8,2.2-1.1c-0.1,3.7,1.1,7,3.5,10c0.2,0.2,0.3,0.3,0.5,0.3
		c-1.4-5,0.6-10.1,3.6-14.8c0.3-0.3,0.6-0.5,0.9-0.5c0,0,0.2,0,0.3,0c0.3,0,0.5,0.1,0.9,0.4c0.7,0.5,1.4,0.7,2.1,0.8
		c9.6,0.4,16.2-9.4,22.3-15.9c9,1.6,19.9,4.2,28.5,9c0.2,0,0.2,0.1,0.4,0.2c0.1,0.1,0.2,0.1,0.2,0.2h-0.1c0.3,0.5,0.3,1.1-0.4,1.3
		c-13,2.2-25.3,6.7-33.1,17.1c8.6-2,19.8,0.1,26.7,5c0.4,0.3,0.5,0.8,0.3,1.1l0,0l0,0c-0.2,0.3-1.6,0.9-1.9,1
		c-2.4,1.1-4.8,2.1-7.3,3c-3.3,1.7-6.4,3.7-9,6.3c4.5-0.1,8.9-1.1,13.3,0.8c0.5,0.2,0.5,0.9,0.2,1.3c-1.3,1.4-2.7,2.6-4.1,3.7
		c-7.2,6.6-17.1,10.8-26.2,13.5c-6.1,1.9-12.9,3.4-19.3,5.4c-2.5,0.9-5,2-7.3,3.2c-6,3.2-13.1,7.6-16.1,14.1
		c2.2-0.5,4.5-0.5,6.9-0.2c5,0.6,8.6,4.5,13.4,5.3c1.7,0,1.4,1.1,1.1,1.7c-0.8,1.1-1.5,2.3-2.2,3.4c-11-4.3-22.8,2.8-23.9,14.8
		c-2.8,1.1-5.1,3-7,5.9c-5.3,7.9-3.2,20.5-0.7,29c2.2,7.4,6.7,13.1,12.9,16.8c0.8,0.3,1.7,0.7,2.5,1.1c0.2,0,0.5,0.1,0.7,0.2
		c10.3,4.2,20.9,3.9,31.8,3.9c0.2,0,2.8,0,5.3,0.5c2.4,0.5,4.7,1.5,4.7,1.4c5.4,2.8,11.2,4.7,17.1,6.1c8.6,2,18.1,2.9,27.2,1.8
		c6.5-1.6,12.8-3.4,18.4-7.3c0.1-0.1,0.2-0.1,0.2-0.2v-0.1h0.1l0,0c0.3-0.2,0.6-0.2,1-0.2c1.7,0,3.2,0.2,4.8,0.4
		c17.6,1.2,34.4,9.6,52.5,6.5c7.9-1.3,15.1-5.1,19.9-11.6C210.7,283.4,211.4,272.2,209.9,263.5z M175,222.6c0.8-1.8,1.8-4.8,2.3-7.7
		c4.7,5.9,7.4,12.4,5,20.4c-1.2-0.8-2.5-1.5-4-2.1c-3.4-1.4-7-1.6-10.9-1.4C170.6,229.4,173.3,226.5,175,222.6z M134.4,242.8
		c9.3-1.8,18.9-3.1,27.8-6.3c3.6-1.3,9.2-1.5,15.1,0.2c3.7,1.1,7,4.7,7.6,8.6c-9.3-1.6-19.2-1.3-28.6-1.4c-12,0-23,2.1-34.7,4.7
		c-12.6,2.8-23.8,0.6-35.9-3.4c-0.5-0.2-1.1-0.4-1.7-0.6c1.1-2.4,2.4-4.7,4.1-6.8C102,246.3,118.8,245.7,134.4,242.8z M77.7,251.9
		c-2.4,11.6,2.8,22.3,11.3,30c6.7,6.1,15.2,9.6,23.9,12.2c-13.9-0.2-29.1-1.5-38.5-12.5c-5.6-6.6-7.8-16.4-7.7-24.9
		c0.1-7.4,2.8-14.5,6.7-20.7c8.3-13,22-22.1,34.2-31c11.9-8.6,23-17.4,31.2-29.4c2.5-0.8,5-1.7,7.6-2.5
		c-5.6,7.3-11.6,14.5-17.9,21.2c-9.1,9.6-19.2,18.1-29.4,26.7C89.4,229.1,80.5,238.9,77.7,251.9z M140.4,109.6
		c3.4,7.7,5.9,15.8,6.6,24.2c-0.1,0-0.2,0.1-0.2,0.1c-6,3.1-12.5,4.3-19.1,3.4c0-2.2-0.1-4.4-0.2-6.5c-0.2-3.5-1.3-7.3-2.9-10.8
		C130.8,118.5,136.5,114.9,140.4,109.6z M122.4,116.4c-2.5-3.8-6-6.9-10.2-8.3c7-2.8,12.5-7.2,15.1-15.1c0.5-1.5,0.8-3.1,1.1-4.7
		c3.7,5.5,7.3,11.2,10.3,17.2C134.9,111.5,129.1,115.4,122.4,116.4z M147.1,137.9c0,2.7-0.2,5.4-0.5,8.3c-0.5,4-1.5,7.8-2.8,11.6
		c-0.2,0-0.3,0-0.5,0.1c-6.5,1.8-12.9,0.8-18.6-2.7c1.7-4.4,2.4-9.2,2.7-14C134.2,141.8,140.9,140.9,147.1,137.9z M142.1,162
		c-1.5,3.6-3.4,7-5.6,10.3c-1.5,0.5-3.1,1-4.7,1.5c-6,1.8-15.5,5.6-21.2,1.8c0.7-0.6,1.4-1.3,2-2c4.3-4.4,8-9.4,10.6-15
		C129,162,135.6,163.2,142.1,162z M126.4,179.2c2.1-0.5,4.3-1.1,6.4-1.8c-5,6.4-11,12.2-17.5,17.1c-3.2,2.4-6.6,4.9-10.1,7.4
		C98.5,201,93,196.2,90.9,190c6-3.3,11.7-7.3,16.8-11.8C112.9,182.4,120.3,180.7,126.4,179.2z M101.1,204.9
		c-5.5,4-11.2,8.2-16.3,12.7c-0.3-0.5-0.8-0.8-1.5-0.8c-9.9,0.2-19.4-3.4-26.7-10c2.1-1.5,4.2-2.9,6.4-4.1
		c7.8-4.4,16.4-6.8,24.5-10.8C89.8,198.1,94.8,202.9,101.1,204.9z M191,180.6c-8.1-2.1-16.3-3.4-24.7-3.9
		c-6.3-0.3-14.7-1.4-17.1,5.9c-3.9,11.4-2.6,29.9,10.2,34.1c-1.4,0.5-2.8,0.8-4,1.1c-2.8,0.8-5.6,1.6-8.4,2.4
		c-5.2,1.4-10.4,2.4-15.7,3.4c-10.8,1.9-21.8,2.8-32.7,2.8c0.4-0.4,0.8-0.8,1.2-1.1c8.1-7.2,16.6-13.8,24.4-21.3
		c10.5-10.2,20-21.3,28.6-33.1c9-2.9,18.1-5.4,27.7-5.6C186.6,168.2,190.5,174,191,180.6z M205.3,166c-7.8-3.2-15.4-4.7-23.9-4.6
		c-0.2,0-1.1,0-1.2,0c-8.1,0.2-16,2-23.8,4.3c6.6-9.6,12.5-19.7,17.7-30.1C188.2,141,199.6,152.1,205.3,166z M121.2,23.5
		c2.5,0.8,5,1.8,7.4,2.8c-2.4-0.2-5-0.1-7.4,0.1C121.2,25.5,121.2,24.5,121.2,23.5z M136.7,31.1c1.5,0.3,10.9,2.4,14,4.8
		c-14.2-7.6-33.5-5-47.9,0.2c-7.7,2.8-14.4,7.4-21.1,12c-0.9,0.2-1.8,0.3-2.7,0.5c4.3-3,8.6-6,13.1-8.6c8.6-5.2,18-8.8,28.2-9.7
		C125.7,29.7,131.2,30.1,136.7,31.1z M86,47.6c3.7-2.5,7.4-4.9,11.4-6.8c8.7-4.3,18.4-6.5,28-7c8-0.5,16.4,0.4,23.6,4.1
		c0.3,0.4,0.3,0.4,0.5,1c0.1,0.4,0,0.8,0,1c0,0.1-0.1,0.3-0.1,0.4c-0.3,0.6-0.5,1-1.3,1.4c-2.7,1.2-5.5,1.7-8.3,1.4
		c-0.6,0-1.2,0-1.8,0c-3,0.2-6,0.2-9,0.2c-8.5-0.2-16.2-0.1-24.3,3.1c-1.6,0.6-3.1,1.2-4.7,1.8c-0.2,0.2-8.2,3.7-11.5,4.4
		c-6.7,2.6-13.5,5-20.5,7c3.7-2.1,7.3-4.4,10.8-6.9C78.9,52.7,86.1,47.6,86,47.6z M56.1,15.8c1.2-4.4,7-6.7,10.9-8
		c3.8-1.3,7.8-1.7,11.8-1.8c8.8-0.5,17.7,0.4,26.5,1.7c1.9,0.3,3.9,0.6,5.8,1c3,0.5,3.8,2,4.7,4.8c1.3,4.4,1.7,8.9,1.6,13.4
		c-3.8,0.5-7.6,1.4-11.2,2.5c-1.1,0.4-0.3,0.1-1.4,0.5c-1.2,0.5-2.5,0.9-3.7,1.4c-7.3,3.1-14,7.3-20.6,11.8
		c-0.3-0.2-0.6-0.2-1.1-0.2c-8.2,0.6-16.3,0.2-24.4-1.4c0.1-3.9,0.2-7.8,0.2-11.8C55.4,25,54.9,20.1,56.1,15.8z M56.9,45.4
		c6.1,1.1,12,1.5,18.1,1.3c-2.3,1.6-4.7,3.2-7,4.8c0,0-8.6,5.3-10.9,6.5c-2.8,1.5-5.6,2.9-8.6,3.8c-0.4,0.2-7.2,1.5-10.6,1.3
		c-6.7-0.5-13.7-3.1-14.8-9.8c-0.1-0.2-0.2-0.3-0.2-0.5C22.5,45.5,26.1,39,31.4,34c5.1-4.8,12.9-9.7,20.1-9.6
		c-0.1,5.7-0.2,11.5-0.3,17.3c-3.1,0.3-5.9,1.6-8.1,3.7c-0.2,0.2-0.3,0.8-0.3,1.1c1.7-0.8,2.7-1.6,5.2-2.5c2.5-0.7,3.1,0,3.3-0.1
		C51.4,44,55,44.9,56.9,45.4z M60.9,69c0.1,0.4,0.3,0.8,0.5,1.1c-3.1,0.2-6.3,0.7-9.5,1.5c-1.3-1.2-2.7-2.5-3.7-4
		c4.2-0.4,8.4-1.1,12.5-2.1C60.6,66.6,60.6,67.8,60.9,69z M49.9,76.2c3.7-1.1,7.6-2,11.6-2.3c0,0.1,0,0.2,0,0.2
		c0.2,5.5-5.2,8.2-9.7,9.7c-2.4,0.8-5,1.4-7.5,1c-4.4-0.8-2.7-4.3-0.7-6.5C45.7,77.5,47.9,76.8,49.9,76.2z M51.5,21.7L51.5,21.7
		c0.1,0.2,0.1,0.3,0.1,0.5c-8.1-0.2-16,5.1-21.8,10.3c-4,3.5-7,8.1-8.4,13.2C21.1,29.8,37.5,21.4,51.5,21.7z M26.4,92
		c0.2,1.1,0.7,2.6,1.5,4.1c0,0.1,0,0.2,0,0.2c-4.9-4.7-9.9-9.6-12.6-16c-2.2-5.3-2.7-15.6,2.6-19.5c1.4-1,3.1-1.1,4.8-0.8l0.1,0.1
		c4.9,6.1,13.5,7.7,20.8,7.6c0.1,0,0.2,0,0.3,0c0.9,1.8,2.4,3.4,3.8,4.9c-5.6,1.7-10.9,4.2-15.4,7.3C28.7,82.6,25.4,87.4,26.4,92z
		 M31.5,99.9c0.5,0.2,1.1,0.2,1.7,0.2c0,3.9,0.1,7.9,0.4,11.8C31.3,108.6,31.3,104.2,31.5,99.9z M38,106.4c-0.3-0.2-0.5-0.4-0.8-0.5
		c-0.1-2.4-0.1-4.9-0.1-7.4c0-0.2,0-0.2-0.1-0.4c0.1-0.1,0.1-0.1,0.2-0.2c2.3-1.8,4.2-2.7,7.2-2.9c1.4-0.1,2.8,0,4.1,0.2
		c-0.1,5.4-0.5,11.6,1.1,16.8c-0.1,0.2-0.2,0.3-0.3,0.4c-0.3-0.3-0.7-0.5-1.1-0.5C44.1,111.6,40.9,109,38,106.4z M55.9,120.2
		c-2.4,4.1-5,8.2-7.8,11.9c-0.5-3.7,0.2-8.7,0.9-11.9l0,0c0.7-1.5,1.5-2.8,2.4-4.2C52.5,117.7,53.9,119.1,55.9,120.2z M52.2,96.2
		c2.3,0.5,4.5,1.2,6.8,1.6c-2.8,5.9-2,12.2-2.2,18.5C51,112.3,52,103,52.2,96.2z M44.7,141.2c-1.3,2.4-2.1,4.8-2.4,7.4
		c-0.5-1.7-0.4-6.1-0.5-6.3c1.6-1.5,3.1-2.9,4.5-4.5c0,0.1,0.1,0.1,0.1,0.2c2.6-3.4,5-6.8,7.1-10.5c0-0.1,4.1-6,4.4-6.4
		c0.1,0,0.2,0.1,0.2,0.1c0.7,0.2,1.3,0,1.8-0.5c-1.9,3.7-4.9,7.3-8,10.8C49.6,134.8,47.3,138.1,44.7,141.2z M52.9,136.6
		c-0.9,0.3-1.7,0.2-2.3,0c0.5-0.7,1.1-1.4,1.8-2.1c4.1-4.7,7.8-9,10.4-14.8c5-11.2,12.3-21,22.2-28.4c2.1-0.6,4.2-1,6.3-1
		c-11.8,4.2-19.1,17.4-24.9,28.1C63.3,124.3,59.9,134.5,52.9,136.6z M60.6,116.2C65.5,108,70.6,100,78,94c0.2-0.1,0.3-0.2,0.5-0.2
		c-7.7,7.1-13.5,15.7-18,25.5c0,0,0,0,0-0.1C60.6,118.3,60.6,117.2,60.6,116.2z M62.8,98.9c0.1-0.2,0.2-0.4,0.2-0.6
		c3.1,0.1,6.1-0.7,9.1-1.8c-4.4,4.7-8,10.2-11.5,15.8C60.6,107.7,60.5,103,62.8,98.9z M73,120.5c-0.3,0.2-6,6.8-8.1,9
		c6.5-10.9,12.2-26.7,22.9-33.4c4.2-3.3,9.3-5.2,14.5-5.7c0,0-1.7-1.3-1.8-1.3c-8.4-5.4-18.5-1.5-27.6,3c-5.6,2.7-10.3,2.7-16.3,1.3
		c-4.5-1.1-8.9-2.2-13.5-1.8c-3.7,0.3-6,1.8-9,4c-1.2,0.9-2.1,0.5-2.7-0.5c-0.7-1.2-1-2.2-1.2-2.8c-1.4-3.8,2-7.6,4.8-9.6
		c0.8-0.5,1.6-1.1,2.4-1.5c-0.2,1.1-0.2,2.4,0.4,3.6c1.8,3.7,6,4.4,9.8,4.1c7.7-0.7,17.7-5.7,17.6-14.5c0-0.2,0-0.2-0.1-0.4
		c0.2,0,2.2-0.5,2.4-0.5c3.3,0.2,6.4-0.3,9.6-1c0.2,0.3,0.5,0.5,0.9,0.7c5.6,2.1,10.8,5.4,16.8,6c3.7,0.4,6.5-1.2,8.4-3.7
		c0.3-0.6,0.8-1.2,1.2-1.8c0.8-1.5,1.5-3.2,1.9-4.9c0.4-1.8,0.1-2-1-2.7c-1.1-0.4-1.6-0.5-2.3-0.5c-10,0.1-19.5,1.8-29.3,3.7
		c-2.4,0.5-6.7,1.2-8.9-0.6c-1.1-0.8-0.8-2.4-0.2-4.1c2.2-0.6,4.4-1.2,6.6-1.8c8.9-2.5,17.5-5.8,26.1-9.3c0,0,8.6-4.2,13.2-5
		c1.8-0.5,3.7-0.9,5.6-1.1c5.1-0.6,10.4-0.2,15.5-0.1c0,0,0,0-0.1,0h4.2c1.8-0.1,5.9-0.8,6-0.8c3.3-0.6,11.6-3.5,12.1-3.7
		c9.4-3.2,19-0.4,26.2,6.1c7.3,6.7,10.8,16.6,11.6,26.2c1.7,20.5-9.2,39.2-19.8,55.8c-0.2,0.4-0.3,0.7-0.4,1
		c-1.9,3.8-3.8,7.7-5.9,11.4c-4.6,8.4-9.8,16.5-15.3,24.3c-2.8,0.9-5.5,1.8-8.3,2.8c0.5-0.8,0.9-1.7,1.4-2.5
		c6.7-12.9,8.8-27.3,6.3-41.5c-2.5-14.5-10.2-27.7-18.3-39.8c-0.9-1.1-2.2-2.4-2.8-3.9c-0.1-0.1-0.5-1.1-0.5-1.6
		c-0.1-0.3-0.5-2.1-0.2-1c-0.8-3.5-2.5-6.8-6-8.4c-0.2-0.1,3.1,4.9,3.5,8.7c0.1,0.8,0.2,0.9,0,3.1c-0.1,1.4-0.1,1.4-0.7,4
		c-0.8,3.3-1.8,6.4-3.1,8.7c-4.2,8.3-15.8,10.3-24,12.2C88.5,110.6,80.2,113.8,73,120.5z M83.3,71c6.3-1.1,12.7-1.8,19.1-1.8
		c-1.7,4.9-4.9,6.7-10.4,5.3C88.9,73.7,86.1,72.3,83.3,71z M77.1,122c7.6-6.4,16.8-8.5,26.2-11c0.1,0,2.9-0.7,2.9-0.6
		c2.2-0.2,2.1,0,3.2,0.3c2.9,0.7,5,1.9,6.8,4c2,1.8,3.7,4,4.9,6.7c1.9,4.2,3.1,9.2,3.2,14.4c0,5.7-1,11.6-2.7,16.9
		c-1.2-6.5-4.7-11.7-9.3-15.9c-0.2-0.2-0.5-0.3-0.7-0.5c-0.7-0.7-2.3-2-2.4-2C100.1,127.7,87.9,124.1,77.1,122z M75.3,150.3
		c9.3-7.8,20.6-11.8,32.7-12.2c6.6,5.2,10.8,12.4,10.1,22.3c-0.2,0.3-0.3,0.5-0.5,0.8c-2.7,4.4-5.9,8.3-9.5,11.8
		c-0.2-0.2-0.3-0.5-0.4-0.7c-2.9-5.4-2.4-12-8.2-15.6c-0.8-0.5,0,0-0.6-0.4C91.9,151.7,83.5,150.6,75.3,150.3z M31.8,209.6
		c-2.8-1.1-5.5-1.2-8.3-1.1c6-6.3,15-9.3,23.3-11.7c9.7-2.8,19.4-5,28.5-9.4c5.6-2.6,10.9-5.9,15.5-10c2-1.8,5.7-4.9,4.8-8
		c-0.6-2.4-4.1-2.3-6-2.1c-1.1,0.1-2.3,0.2-3.4,0.3c4.4-2,9.3-3.2,13.4-5.9c3.1,3.7,3.1,9.8,5.7,13.9c-10.6,9.1-24,15.1-36.9,20.3
		C58,200,48.7,206.7,41.9,215.4c-0.3-0.5-0.8-0.8-1.5-0.9C37,214.1,34.9,210.8,31.8,209.6z M53.5,209.2c7.7,7.1,17.5,11.2,28,11.5
		c-5.3,5-9.9,10.4-13.2,16.5c0,0.1,0,0.1-0.1,0.2c-0.1,0.1-0.2,0.2-0.2,0.3c-0.2,0.4-0.5,0.8-0.6,1.2c-0.1,0-0.1,0-0.2,0
		c-2.4,3-6.3,3.9-10.3,3.6c-1.9,0-3.8-0.4-5.7-0.8c-5.4-1.1-10.6-3.1-15.8-5C38.2,225.7,44.9,216.3,53.5,209.2z M63.1,260.2
		c0.2,2.8,0.6,5.5,1.2,8.2c-0.2,0.1-0.4,0.2-0.6,0.4c-4.8,4.9-11.5,6.8-18.1,5.1c-0.5-0.2-1.1-0.1-1.4,0.2c-5.4-7.3-9-16-9.6-25.5
		c-0.2-2.8-0.1-5.7,0.3-8.3c8.6,3.4,21.4,8.9,30.2,4.1C63.5,249.3,62.7,254.5,63.1,260.2z M35.8,225.1c-1.1,2.1-2,4.3-2.8,6.6
		c-0.5,1.4-0.8,2.8-1.1,4.2c-0.1,0-0.2-0.1-0.2-0.1c-4.6-0.7-9.5-1.1-13.8-0.4C19.3,227,27.7,222.1,35.8,225.1z M11.7,275.3
		C7.8,268.1,6.6,258,8,249.9c2-11.6,13.2-11.9,22.6-10.5c0.2,0,0.4,0,0.6,0c-2.1,14.6,3.2,29.4,12.9,40.6c3.7,4.4,8.1,8,12.8,11.2
		C40.4,289.3,20.6,292,11.7,275.3z M70.9,294.3c-1.5-0.6-3.1-1.3-4.6-2.1c-7.1-3.4-13.6-8.3-18.8-14.2c6.6,0.8,13-1.2,18-5.7
		c2.4,6.9,6.6,13.1,12.6,17.4c-1.5,1.8-3.7,3.1-6,3.7C71.5,293.6,71.1,293.9,70.9,294.3z M75.9,296.1c2.1-1,4-2.5,5.4-4.4
		c0,0,0,0,0.1,0c10.3,5.6,22.7,6,34.3,6C103.2,301.6,88.5,300.3,75.9,296.1z M206.6,273.4c-0.2,5.1-1.5,10.1-4.1,14.5
		c-4.6,7.3-13.7,10.3-21.9,11.2c-19.6,2-37.8-9.1-57.5-7c-0.5,0.1-0.8,0.2-1.1,0.5c-9.8-2.5-19.6-5.4-27.9-11.5
		c-9-6.5-14.5-17-12.6-28.2c0.3-1.6,0.7-3.1,1.1-4.7c9.3,3.1,18.7,6.1,28.5,5.8c10.8-0.3,21-4.5,31.7-5.7c10.6-1.1,21.4-0.7,32-0.2
		c3.1,0.2,6.7,0.4,10.3,1c0.1,0.1,2.2,0.5,2.9,0.6c0,0,0.1,0,0.1-0.1c6.7,1.5,13.1,4.2,16.4,9.8C207,263.6,206.8,268.9,206.6,273.4z
		"/>
	<path fill="#010202" d="M107.2,8.6C99.7,8.1,92.4,9.2,85,10.7c-4.1,0.8-8,2-11.9,3.4c-1.7,0.6-3.4,1.1-5,1.7c0,0-2.4,0.8-3.6,0.9
		c-1.2,0.2-2.5,0.1-3.7-0.4c-0.9-0.4-2-3-1.9-3.2c-0.5,0.6-0.3,0.3-0.5,0.6c-1.2,2.3,0,4.1,2.2,4.9c4,1.4,9.4-1,13.1-2.3
		c6.9-2.4,14.1-3.9,21.3-4.5c6.4-1.6,9.1-2,13.2-2.4C108.2,8.9,107.7,8.7,107.2,8.6z"/>
	<path fill="#010202" d="M86,23.2c-0.5-0.6-0.4-0.6-0.8-1.2c-0.4-1.1-0.3-1.5-0.1-2.4c0.2-0.6,0.3-0.9,0.7-1.6
		c2.2-2.5,4.7-4.4,7.8-4.8c0-0.1,0.1-0.2,0.1-0.2c-0.2-0.2-0.5-0.4-0.8-0.4c-4.4,0-11.1,4.3-10.3,9.3c0.3,2.4,3.3,3.8,5.2,4.7
		c4,1.4,6.9,2.1,10.5,2.3c0.3,0,0.9-0.4,1.2-0.5C94.6,27.6,89.9,26.2,86,23.2z"/>
</g>
</svg>
